PathFileType	4	(X/Y/Z)	C:/Users/opensim2020/Desktop/walking_exp_matlab/subject03_walking04_static.trc																																																																																																																																																							
DataRate	CameraRate	NumFrames	NumMarkers	Units	OrigDataRate	OrigDataStartFrame	OrigNumFrames																																																																																																																																																			
100	100	4	51	mm	100	207	196																																																																																																																																																			
Frame#	Time	LFHD			RFHD			LBHD			RBHD			C7			T10			CLAV			STRN			RBAK			LSHO			LUPA			LELB			LFRM			LWRA			LWRB			LFIN			RSHO			RUPA			RELB			RFRM			RWRA			RWRB			RFIN			LASI			RASI			LPSI			RPSI			LTHI			LKNE			LTIB			LANK			LHEE			LTOE			RTHI			RKNE			RTIB			RANK			RHEE			RTOE			*39			*40			*41			*42			*43			*44			*45			*46			*47			*48			*49			*50		
		X1	Y1	Z1	X2	Y2	Z2	X3	Y3	Z3	X4	Y4	Z4	X5	Y5	Z5	X6	Y6	Z6	X7	Y7	Z7	X8	Y8	Z8	X9	Y9	Z9	X10	Y10	Z10	X11	Y11	Z11	X12	Y12	Z12	X13	Y13	Z13	X14	Y14	Z14	X15	Y15	Z15	X16	Y16	Z16	X17	Y17	Z17	X18	Y18	Z18	X19	Y19	Z19	X20	Y20	Z20	X21	Y21	Z21	X22	Y22	Z22	X23	Y23	Z23	X24	Y24	Z24	X25	Y25	Z25	X26	Y26	Z26	X27	Y27	Z27	X28	Y28	Z28	X29	Y29	Z29	X30	Y30	Z30	X31	Y31	Z31	X32	Y32	Z32	X33	Y33	Z33	X34	Y34	Z34	X35	Y35	Z35	X36	Y36	Z36	X37	Y37	Z37	X38	Y38	Z38	X39	Y39	Z39	X40	Y40	Z40	X41	Y41	Z41	X42	Y42	Z42	X43	Y43	Z43	X44	Y44	Z44	X45	Y45	Z45	X46	Y46	Z46	X47	Y47	Z47	X48	Y48	Z48	X49	Y49	Z49	X50	Y50	Z50	X51	Y51	Z51
																																																																																																																																																										
25	0.24	-357.44226	1633.02502	-664.66156	-390.29935	1642.6095	-535.51068	-484.63223	1592.25671	-689.26721	-512.37915	1602.06128	-561.50659	-527.36688	1427.39282	-623.94269	-545.26874	1115.36023	-615.73651	-398.50134	1363.16309	-609.29297	-344.20404	1199.1676	-608.12592	-577.5564	1248.99402	-532.75488	-449.04993	1400.10022	-768.30237	-464.47086	1211.1427	-853.82367	-461.36829	1091.56079	-882.91284	-431.88495	966.1676	-904.85327	-400.32767	847.8985	-896.39923	-436.76205	855.84741	-938.0401	-414.05963	773.8089	-942.51654	-478.11343	1391.3772	-459.92859	-484.922	1181.7616	-363.30573	-469.29285	1074.70117	-328.72958	-447.89673	941.80579	-299.59378	-405.06921	845.46405	-309.63245	-447.25104	844.02844	-274.48547	-419.37216	773.91162	-268.40732	-388.92041	947.18695	-718.59448	-401.70465	947.94714	-484.9061	-552.76617	979.24286	-679.83759	-557.88055	987.06494	-530.62793	-456.19247	647.7251	-771.65594	-462.44427	470.12677	-735.26776	-518.33832	285.49777	-754.22821	-539.3559	73.80836	-729.66406	-580.76953	36.75667	-696.97144	-387.03839	34.51352	-709.15466	-473.9852	654.09064	-439.28052	-467.34314	474.49585	-472.79999	-519.84186	292.74521	-461.83017	-547.10834	75.99696	-500.96835	-587.53522	41.79204	-552.82751	-404.96542	36.43362	-500.40707	-447.80957	1699.05542	-638.44885	NaN	NaN	NaN	NaN	NaN	NaN	NaN	NaN	NaN	NaN	NaN	NaN	NaN	NaN	NaN	NaN	NaN	NaN	NaN	NaN	NaN	NaN	NaN	NaN	NaN	NaN	NaN	NaN	NaN	NaN	NaN	NaN	NaN
26	0.25	-357.36166	1633.03088	-664.68085	-390.1362	1642.60437	-535.4942	-484.561	1592.29199	-689.22266	-512.2215	1602.06445	-561.45691	-527.27704	1427.41418	-623.90833	-545.24481	1115.37732	-615.64307	-398.40262	1363.17554	-609.29791	-344.15585	1199.15259	-608.15442	-577.48572	1249.04358	-532.69366	-448.95633	1400.09216	-768.27557	-464.40854	1211.13306	-853.76416	-461.384	1091.56604	-882.85114	-431.91385	966.1214	-904.67102	-400.4028	847.84247	-896.20038	-436.87128	855.78235	-937.80664	-414.2692	773.74353	-942.41217	-477.99911	1391.3999	-459.93393	-484.7868	1181.76025	-363.31503	-469.22192	1074.70056	-328.78149	-447.82629	941.80402	-299.70813	-404.98325	845.48761	-309.81128	-447.0947	844.00586	-274.61154	-419.22021	773.85083	-268.55106	-388.99182	947.22601	-718.6297	-401.71469	947.95166	-484.92447	-552.79785	979.25385	-679.71765	-557.89856	987.09802	-530.57111	-456.31876	647.74994	-771.71204	-462.45645	470.10266	-735.22363	-518.35504	285.50766	-754.22864	-539.34918	73.80092	-729.74561	-580.74573	36.78082	-696.96875	-387.0267	34.50649	-709.16589	-473.95493	654.08649	-439.25208	-467.29282	474.53821	-472.74741	-519.82013	292.69925	-461.81796	-547.06134	75.99834	-500.97702	-587.37292	41.68351	-552.49091	-404.95151	36.46042	-500.4108	-447.70645	1699.02148	-638.4137	NaN	NaN	NaN	NaN	NaN	NaN	NaN	NaN	NaN	NaN	NaN	NaN	NaN	NaN	NaN	NaN	NaN	NaN	NaN	NaN	NaN	NaN	NaN	NaN	NaN	NaN	NaN	NaN	NaN	NaN	NaN	NaN	NaN
27	0.26	-357.27029	1633.02161	-664.72211	-389.96997	1642.62927	-535.46411	-484.47998	1592.28809	-689.19202	-512.09644	1602.05774	-561.43042	-527.17133	1427.44592	-623.88879	-545.27704	1115.42261	-615.62665	-398.32138	1363.16455	-609.32635	-344.08502	1199.15332	-608.16754	-577.40619	1249.16064	-532.66425	-448.90726	1400.13721	-768.33099	-464.33722	1211.11365	-853.69733	-461.31403	1091.50757	-882.74774	-431.95529	966.06165	-904.51947	-400.47113	847.7749	-896.01227	-436.86713	855.74225	-937.71539	-414.36386	773.67664	-942.19727	-477.85611	1391.49146	-459.93362	-484.67505	1181.79272	-363.30655	-469.0983	1074.68689	-328.82709	-447.69482	941.81207	-299.77377	-404.84378	845.47528	-309.93222	-446.94403	844.01062	-274.72342	-419.06879	773.854	-268.79102	-389.07697	947.23773	-718.64624	-401.73608	947.93732	-484.92029	-552.9447	979.22839	-679.77069	-557.9201	987.09216	-530.51935	-456.36349	647.74677	-771.70264	-462.48831	470.09497	-735.24634	-518.35242	285.49756	-754.19855	-539.35242	73.79391	-729.71411	-580.73535	36.79064	-697.00714	-387.01541	34.49662	-709.14893	-473.88434	654.06104	-439.22668	-467.24576	474.52539	-472.74612	-519.80505	292.70709	-461.81412	-547.08716	76.00618	-500.97369	-587.50928	41.79134	-552.77667	-404.93857	36.4561	-500.41895	-447.58456	1699	-638.31287	NaN	NaN	NaN	NaN	NaN	NaN	NaN	NaN	NaN	NaN	NaN	NaN	NaN	NaN	NaN	NaN	NaN	NaN	NaN	NaN	NaN	NaN	NaN	NaN	NaN	NaN	NaN	NaN	NaN	NaN	NaN	NaN	NaN
28	0.27	-357.15918	1633.01465	-664.72614	-389.79037	1642.60913	-535.48572	-484.38669	1592.29956	-689.1416	-511.9296	1602.05115	-561.37109	-527.07941	1427.45679	-623.86688	-545.30756	1115.44714	-615.58905	-398.22327	1363.14282	-609.34094	-344.00555	1199.11426	-608.16901	-577.33716	1249.18347	-532.60785	-448.83463	1400.06909	-768.29596	-464.26892	1211.08032	-853.66583	-461.36682	1091.44922	-882.58057	-432.01257	966.01447	-904.36279	-400.53146	847.74139	-895.8504	-436.93466	855.70343	-937.55914	-414.39859	773.56934	-941.86676	-477.73129	1391.44336	-459.92609	-484.56238	1181.7821	-363.32648	-468.99655	1074.67639	-328.85345	-447.58121	941.77435	-299.87094	-404.72989	845.46765	-310.07181	-446.81128	843.97748	-274.85754	-418.93018	773.7691	-269.0145	-389.15848	947.22424	-718.63837	-401.76926	947.95105	-484.95367	-553.0553	979.31439	-679.80182	-557.90881	987.10309	-530.5047	-456.43176	647.75562	-771.71161	-462.47849	470.08731	-735.18945	-518.36102	285.49017	-754.20404	-539.34796	73.78822	-729.69885	-580.74744	36.77227	-696.99396	-387.01935	34.49872	-709.15985	-473.84634	654.04706	-439.23029	-467.24237	474.51575	-472.73074	-519.79956	292.7421	-461.7789	-547.09247	76.01335	-500.99396	-587.41278	41.68893	-552.51874	-404.95035	36.45084	-500.41241	-447.48706	1699.0116	-638.28503	NaN	NaN	NaN	NaN	NaN	NaN	NaN	NaN	NaN	NaN	NaN	NaN	NaN	NaN	NaN	NaN	NaN	NaN	NaN	NaN	NaN	NaN	NaN	NaN	NaN	NaN	NaN	NaN	NaN	NaN	NaN	NaN	NaN
